<svg viewBox="0 0 1600 1000" xmlns="http://www.w3.org/2000/svg"><defs><linearGradient id="bg2" x1="0" y1="0" x2="1" y2="1"><stop offset="0%" stop-color="#101010"/><stop offset="55%" stop-color="#18110A"/><stop offset="100%" stop-color="#06080F"/></linearGradient><linearGradient id="amber" x1="0" y1="0" x2="1" y2="1"><stop offset="0%" stop-color="#FFD36E"/><stop offset="100%" stop-color="#FF8B1F"/></linearGradient><linearGradient id="card2" x1="0" y1="0" x2="1" y2="1"><stop offset="0%" stop-color="#191D24" stop-opacity="0.96"/><stop offset="100%" stop-color="#11151D" stop-opacity="0.90"/></linearGradient><filter id="softGlow2" x="-50%" y="-50%" width="200%" height="200%"><feGaussianBlur stdDeviation="8" result="b"/><feMerge><feMergeNode in="b"/><feMergeNode in="SourceGraphic"/></feMerge></filter><style>.title{font:700 50px Inter,Arial,sans-serif;fill:#FFF8EF}.subtitle{font:400 22px Inter,Arial,sans-serif;fill:#D8C7B0}.small{font:600 18px Inter,Arial,sans-serif;fill:#F8DAB5;letter-spacing:1px}.label{font:700 22px Inter,Arial,sans-serif;fill:#FFF9F3}.body{font:500 17px Inter,Arial,sans-serif;fill:#D3C2AB}.body2{font:500 15px Inter,Arial,sans-serif;fill:#D3C2AB}.metricLabel{font:700 26px Inter,Arial,sans-serif;fill:#FFF9F3}.flow{stroke:url(#amber);stroke-width:4;fill:none;stroke-linecap:round;filter:url(#softGlow2);stroke-dasharray:10 16;animation:dash 7s linear infinite}@keyframes dash{to{stroke-dashoffset:-260}}</style></defs><rect width="1600" height="1000" fill="url(#bg2)"/><circle cx="1350" cy="160" r="230" fill="#FF9B2A" fill-opacity="0.08"/><circle cx="280" cy="830" r="220" fill="#FFD36E" fill-opacity="0.05"/><text x="80" y="160" class="title">Opportunity Discovery Engine</text><text x="80" y="198" class="subtitle">Python-driven role matching, ranking, and opportunity focus</text><rect x="80" y="250" rx="22" width="300" height="470" fill="url(#card2)" stroke="#FFB04A" stroke-opacity="0.22"/><text x="152" y="250" class="small">INPUT</text><rect x="112" y="300" rx="16" width="236" height="86" fill="#201A16" stroke="#FFCA74" stroke-opacity="0.22"/><text x="140" y="334" class="label">Candidate Profile</text><text x="140" y="362" class="body2">Skills, experience, career goals</text><rect x="112" y="410" rx="16" width="236" height="86" fill="#201A16" stroke="#FFCA74" stroke-opacity="0.22"/><text x="140" y="444" class="label">Search Criteria</text><text x="140" y="472" class="body2">Role, location, industry, seniority</text><rect x="112" y="520" rx="16" width="236" height="124" fill="#201A16" stroke="#FFCA74" stroke-opacity="0.22"/><text x="140" y="554" class="label">Preferences</text><text x="140" y="582" class="body2">Culture, compensation, company size,</text><text x="140" y="606" class="body2">growth profile, delivery model</text><rect x="480" y="250" rx="26" width="640" height="470" fill="url(#card2)" stroke="#FFB04A" stroke-opacity="0.26"/><text x="734" y="250" class="small">PYTHON ENGINE</text><text x="540" y="320" class="label">Opportunity Discovery Engine</text><text x="540" y="350" class="body">Search orchestration, matching logic,</text><text x="540" y="374" class="body">priority ranking, shortlist generation</text><rect x="530" y="395" rx="18" width="540" height="72" fill="#201A16" stroke="#FFCA74" stroke-opacity="0.20"/><text x="570" y="438" class="label">Profile Understanding</text><text x="850" y="438" class="body2">Parse and vectorize candidate profile</text><rect x="530" y="485" rx="18" width="540" height="72" fill="#201A16" stroke="#FFCA74" stroke-opacity="0.20"/><text x="570" y="528" class="label">Role Matching</text><text x="850" y="528" class="body2">Semantic fit plus domain alignment</text><rect x="530" y="575" rx="18" width="540" height="72" fill="#201A16" stroke="#FFCA74" stroke-opacity="0.20"/><text x="570" y="618" class="label">Opportunity Scoring</text><text x="850" y="618" class="body2">Relevance, growth, leadership fit</text><rect x="530" y="665" rx="18" width="540" height="72" fill="#201A16" stroke="#FFCA74" stroke-opacity="0.20"/><text x="570" y="708" class="label">Ranking &amp; Shortlisting</text><text x="850" y="708" class="body2">Top roles ranked by match score</text><rect x="1200" y="250" rx="22" width="320" height="470" fill="url(#card2)" stroke="#FFB04A" stroke-opacity="0.24"/><text x="1264" y="250" class="small">OUTPUT</text><text x="1250" y="334" class="metricLabel">Top Matches</text><rect x="1240" y="360" rx="14" width="240" height="66" fill="#241C17" stroke="#FFCA74" stroke-opacity="0.18"/><text x="1260" y="400" class="body2">1. Data Engineering Manager · 94%</text><rect x="1240" y="438" rx="14" width="240" height="66" fill="#241C17" stroke="#FFCA74" stroke-opacity="0.18"/><text x="1260" y="478" class="body2">2. Director of Analytics · 91%</text><rect x="1240" y="516" rx="14" width="240" height="66" fill="#241C17" stroke="#FFCA74" stroke-opacity="0.18"/><text x="1260" y="556" class="body2">3. Head of Data Ops · 88%</text><text x="1250" y="622" class="small">RECOMMENDED FOCUS</text><text x="1250" y="652" class="body2">Data leadership</text><text x="1250" y="678" class="body2">AI / ML teams</text><text x="1250" y="704" class="body2">Fortune 500</text><rect x="1240" y="736" rx="16" width="240" height="72" fill="#3B2712" stroke="#FFCA74" stroke-opacity="0.24"/><text x="1270" y="780" class="label">7 High-Alignment Roles</text><path d="M380 485 C430 485, 440 485, 480 485" class="flow"/><path d="M1120 485 C1160 485, 1170 485, 1200 485" class="flow"/></svg>